# xmcd
#
# Track frame offsets:
# 150
# 14573
# 27659
# 46624
# 58452
# 67715
# 75327
# 92050
# 108102
# 123898
# 140533
# 156664
# 170976
# 191054
#
# Disc length: 2754 seconds
#
#
# Revision: 0
# Processed by: cddbd v1.5.1PL2 Copyright (c) Steve Scherf et al.
# Submitted via: FreeRIP 2.943 
#
DISCID=bf0ac00e
DTITLE=Лидия Чебоксарова - Пантомима
DYEAR=2000
DGENRE=Country
TTITLE0=Шансон (М. Щербаков)
TTITLE1=Март-Апрель (В. Берковскии - Д. Самоилов)
TTITLE2=Льготныи билет (Г. Васильев)
TTITLE3=Увези меня к морю (А. Иванов - Ю. Мориц)
TTITLE4=Что мне делать (В. Берковскии - Л. Румарчук)
TTITLE5=Пам-пам (В. Берковскии - Т. Жермундская)
TTITLE6=Русалка (А. Иванов)
TTITLE7=В час далекии от рассвета (А. Иванов)
TTITLE8=Речнои трамваи (Ю. Визбор)
TTITLE9=Катись колбаскои (В. Музыкантов)
TTITLE10=Предчуствие (А. Иванов)
TTITLE11=Акула (В. Козловскии)
TTITLE12=Арго (В. Музыкантов)
TTITLE13=Пантомима (А. Медведенко)
EXTD=
EXTT0=
EXTT1=
EXTT2=
EXTT3=
EXTT4=
EXTT5=
EXTT6=
EXTT7=
EXTT8=
EXTT9=
EXTT10=
EXTT11=
EXTT12=
EXTT13=
PLAYORDER=
